<?xml version="1.0" encoding="iso-8859-1"?>
<!-- Generator: Adobe Illustrator 19.0.0, SVG Export Plug-In . SVG Version: 6.00 Build 0)  -->
<svg version="1.1" id="Capa_1" xmlns="http://www.w3.org/2000/svg" xmlns:xlink="http://www.w3.org/1999/xlink" x="0px" y="0px"
	 viewBox="0 0 512 512" style="enable-background:new 0 0 512 512;" xml:space="preserve">
<g>
	<g>
		<path d="M451.139,400.402l-30.021-28.02V192.828c0-27.623-13.722-53.262-36.705-68.585l-8.327-5.551l-8.327,5.551
			c-3.175,2.117-6.166,4.437-8.976,6.926c-3.907-18.352-12.517-40.938-23.541-60.704c-26.01-46.637-55.146-63.384-75.01-69.22L256,0
			l-4.232,1.244c-36.011,10.581-60.74,44.976-75.144,71.966c-10.219,19.15-18.351,40.677-22.558,58.714
			c-3.051-2.778-6.329-5.351-9.825-7.682l-8.327-5.551l-8.327,5.551c-22.983,15.323-36.705,40.962-36.705,68.585v179.554
			l-30.021,28.02v51.555h30.021V512h330.236v-60.043h30.021L451.139,400.402L451.139,400.402z M361.075,192.828
			c0-13.91,5.473-27.03,15.011-36.725c9.538,9.695,15.011,22.815,15.011,36.725v151.534l-30.021-28.02V192.828z M120.903,192.828
			c0-13.91,5.473-27.03,15.011-36.725c9.538,9.695,15.011,22.815,15.011,36.725v123.514l-30.021,28.02V192.828z M150.925,481.979
			h-30.021v-30.021h30.021V481.979z M210.968,481.979h-30.021v-30.021h30.021V481.979z M210.968,421.935H90.882v-8.487
			l120.086-112.08V421.935z M271.011,481.979h-30.021v-30.021h30.021V481.979z M271.011,421.936h-30.021V192.828
			c0-13.91,5.473-27.03,15.011-36.725c9.538,9.695,15.011,22.815,15.011,36.725V421.936z M264.327,124.243L256,118.692l-8.327,5.551
			c-22.983,15.323-36.705,40.962-36.705,68.585v67.474l-30.021,28.02v-95.494v-37.965c0-10.791,6.877-38.872,22.164-67.518
			c15.393-28.845,34.037-48.472,52.918-55.857c45.706,17.479,75.026,94.299,75.026,118.372v42.969v95.494l-30.021-28.02v-67.474
			C301.032,165.205,287.31,139.566,264.327,124.243z M331.054,481.979h-30.021v-30.021h30.021V481.979z M391.097,481.979h-30.021
			v-30.021h30.021V481.979z M421.118,421.936H301.032V301.368l120.086,112.08V421.936z"/>
	</g>
</g>
<g>
</g>
<g>
</g>
<g>
</g>
<g>
</g>
<g>
</g>
<g>
</g>
<g>
</g>
<g>
</g>
<g>
</g>
<g>
</g>
<g>
</g>
<g>
</g>
<g>
</g>
<g>
</g>
<g>
</g>
</svg>
